<mxfile>
  <diagram>
    <mxGraphModel>
      <root>
        <mxCell id="0"/>
        <mxCell id="1" parent="0"/>
        
        <!-- Entitet: Användare -->
        <mxCell id="2" value="Användare" style="rounded=1;whiteSpace=wrap;html=1;fillColor=#E1D5E7;" vertex="1" parent="1">
          <mxGeometry x="20" y="20" width="180" height="120" as="geometry"/>
        </mxCell>

        <!-- Entitet: Produkt -->
        <mxCell id="3" value="Produkt" style="rounded=1;whiteSpace=wrap;html=1;fillColor=#FFE6CC;" vertex="1" parent="1">
          <mxGeometry x="300" y="20" width="180" height="120" as="geometry"/>
        </mxCell>

        <!-- Entitet: Kategori -->
        <mxCell id="4" value="Kategori" style="rounded=1;whiteSpace=wrap;html=1;fillColor=#D5E8D4;" vertex="1" parent="1">
          <mxGeometry x="580" y="20" width="180" height="100" as="geometry"/>
        </mxCell>

        <!-- Entitet: Order -->
        <mxCell id="5" value="Order" style="rounded=1;whiteSpace=wrap;html=1;fillColor=#F8CECC;" vertex="1" parent="1">
          <mxGeometry x="20" y="300" width="180" height="120" as="geometry"/>
        </mxCell>

        <!-- Entitet: Orderdetalj -->
        <mxCell id="6" value="Orderdetalj" style="rounded=1;whiteSpace=wrap;html=1;fillColor=#DAE8FC;" vertex="1" parent="1">
          <mxGeometry x="300" y="300" width="180" height="80" as="geometry"/>
        </mxCell>

        <!-- Entitet: Recension -->
        <mxCell id="7" value="Recension" style="rounded=1;whiteSpace=wrap;html=1;fillColor=#FFF2CC;" vertex="1" parent="1">
          <mxGeometry x="580" y="300" width="180" height="100" as="geometry"/>
        </mxCell>

        <!-- Relationer här - För demonstration, endast några exempel inkluderade -->
        <!-- Användare till Order -->
        <mxCell id="8" style="edgeStyle=orthogonalEdgeStyle;rounded=0;html=1;exitX=0.5;exitY=1;exitDx=0;exitDy=0;entryX=0.5;entryY=0;entryDx=0;entryDy=0;" edge="1" parent="1" source="2" target="5">
          <mxGeometry width="50" height="50" relative="1" as="geometry">
            <mxPoint x="110" y="410" as="targetPoint"/>
          </mxGeometry>
        </mxCell>

        <!-- Produkt till Recension -->
        <mxCell id="9" style="edgeStyle=orthogonalEdgeStyle;rounded=0;html=1;exitX=0.5;exitY=1;exitDx=0;exitDy=0;entryX=0.5;entryY=0;entryDx=0;entryDy=0;" edge="1" parent="1" source="3" target="7">
          <mxGeometry width="50" height="50" relative="1" as="geometry">
            <mxPoint x="390" y="410" as="targetPoint"/>
          </mxGeometry>
        </mxCell>

        <!-- Produkt till Orderdetalj -->
        <mxCell id="10" style="edgeStyle=orthogonalEdgeStyle;rounded=0;html=1;exitX=0.5;exitY=1;exitDx=0;exitDy=0;entryX=0.5;entryY=0;entryDx=0;entryDy=0;" edge="1" parent="1" source="3" target="6">
          <mxGeometry width="50" height="50" relative="1" as="geometry">
            <mxPoint x="390" y="370" as="targetPoint"/>
          </mxGeometry>
        </mxCell>

      <!-- Ny Entitet: Varukorg -->
        <mxCell id="11" value="Varukorg" style="rounded=1;whiteSpace=wrap;html=1;fillColor=#e1d5e7;" vertex="1" parent="1">
          <mxGeometry x="20" y="500" width="180" height="100" as="geometry"/>
        </mxCell>

        <!-- Ny Entitet: Betalningsinformation -->
        <mxCell id="12" value="Betalningsinfo" style="rounded=1;whiteSpace=wrap;html=1;fillColor=#fce5cd;" vertex="1" parent="1">
          <mxGeometry x="300" y="500" width="180" height="120" as="geometry"/>
        </mxCell>

        <!-- Ny Entitet: Leveransinformation -->
        <mxCell id="13" value="Leveransinfo" style="rounded=1;whiteSpace=wrap;html=1;fillColor=#d9ead3;" vertex="1" parent="1">
          <mxGeometry x="580" y="500" width="180" height="100" as="geometry"/>
        </mxCell>

        <!-- Relation: Användare till Varukorg (en-till-en, antagande) -->
        <mxCell id="14" style="edgeStyle=orthogonalEdgeStyle;rounded=0;html=1;" edge="1" parent="1" source="2" target="11">
          <mxGeometry relative="1" as="geometry"/>
        </mxCell>

        <!-- Relation: Order till Betalningsinformation (en-till-en, antagande) -->
        <mxCell id="15" style="edgeStyle=orthogonalEdgeStyle;rounded=0;html=1;" edge="1" parent="1" source="5" target="12">
          <mxGeometry relative="1" as="geometry"/>
        </mxCell>

        <!-- Relation: Order till Leveransinformation (en-till-en, antagande) -->
        <mxCell id="16" style="edgeStyle=orthogonalEdgeStyle;rounded=0;html=1;" edge="1" parent="1" source="5" target="13">
          <mxGeometry relative="1" as="geometry"/>
        </mxCell>

        <!-- Ny Entitet: Produktkategori -->
        <mxCell id="17" value="Produktkategori" style="rounded=1;whiteSpace=wrap;html=1;fillColor=#cfe2f3;" vertex="1" parent="1">
          <mxGeometry x="860" y="20" width="180" height="100" as="geometry"/>
        </mxCell>

        <!-- Ny Entitet: Underkategori -->
        <mxCell id="18" value="Underkategori" style="rounded=1;whiteSpace=wrap;html=1;fillColor=#d9d2e9;" vertex="1" parent="1">
          <mxGeometry x="860" y="150" width="180" height="100" as="geometry"/>
        </mxCell>

        <!-- Ny Entitet: Admin -->
        <mxCell id="19" value="Admin" style="rounded=1;whiteSpace=wrap;html=1;fillColor=#ead1dc;" vertex="1" parent="1">
          <mxGeometry x="860" y="300" width="180" height="100" as="geometry"/>
        </mxCell>

        <!-- Relation: Produktkategori till Produkt (en-till-många) -->
        <mxCell id="20" style="edgeStyle=orthogonalEdgeStyle;rounded=0;html=1;" edge="1" parent="1" source="17" target="3">
          <mxGeometry relative="1" as="geometry"/>
        </mxCell>

        <!-- Relation: Underkategori till Produktkategori (en-till-många) -->
        <mxCell id="21" style="edgeStyle=orthogonalEdgeStyle;rounded=0;html=1;" edge="1" parent="1" source="18" target="17">
          <mxGeometry relative="1" as="geometry"/>
        </mxCell>

        <!-- Relation: Admin till Produkt (en-till-många, antagande att admin kan hantera flera produkter) -->
        <mxCell id="22" style="edgeStyle=orthogonalEdgeStyle;rounded=0;html=1;" edge="1" parent="1" source="19" target="3">
          <mxGeometry relative="1" as="geometry"/>
        </mxCell>

        <!-- Relation: Admin till Order (en-till-många, antagande att admin kan hantera flera ordrar) -->
        <mxCell id="23" style="edgeStyle=orthogonalEdgeStyle;rounded=0;html=1;" edge="1" parent="1" source="19" target="5">
          <mxGeometry relative="1" as="geometry"/>
        </mxCell>

        <!-- Ny Entitet: Lagerstatus -->
        <mxCell id="24" value="Lagerstatus" style="rounded=1;whiteSpace=wrap;html=1;fillColor=#f9cb9c;" vertex="1" parent="1">
          <mxGeometry x="20" y="700" width="180" height="100" as="geometry"/>
        </mxCell>

        <!-- Ny Entitet: Fraktalternativ -->
        <mxCell id="25" value="Fraktalternativ" style="rounded=1;whiteSpace=wrap;html=1;fillColor=#c9daf8;" vertex="1" parent="1">
          <mxGeometry x="300" y="700" width="180" height="100" as="geometry"/>
        </mxCell>

        <!-- Ny Entitet: Betalningsmetod -->
        <mxCell id="26" value="Betalningsmetod" style="rounded=1;whiteSpace=wrap;html=1;fillColor=#b6d7a8;" vertex="1" parent="1">
          <mxGeometry x="580" y="700" width="180" height="100" as="geometry"/>
        </mxCell>

        <!-- Relation: Produkt till Lagerstatus (en-till-en) -->
        <mxCell id="27" style="edgeStyle=orthogonalEdgeStyle;rounded=0;html=1;" edge="1" parent="1" source="3" target="24">
          <mxGeometry relative="1" as="geometry"/>
        </mxCell>

        <!-- Relation: Order till Fraktalternativ (en-till-en) -->
        <mxCell id="28" style="edgeStyle=orthogonalEdgeStyle;rounded=0;html=1;" edge="1" parent="1" source="5" target="25">
          <mxGeometry relative="1" as="geometry"/>
        </mxCell>

        <!-- Relation: Order till Betalningsmetod (en-till-en) -->
        <mxCell id="29" style="edgeStyle=orthogonalEdgeStyle;rounded=0;html=1;" edge="1" parent="1" source="5" target="26">
          <mxGeometry relative="1" as="geometry"/>
        </mxCell>
   <!-- Ny Entitet: Kampanjer -->
        <mxCell id="30" value="Kampanjer" style="rounded=1;whiteSpace=wrap;html=1;fillColor=#f4cccc;" vertex="1" parent="1">
          <mxGeometry x="860" y="500" width="180" height="100" as="geometry"/>
        </mxCell>

        <!-- Ny Entitet: Kundtjänstärenden -->
        <mxCell id="31" value="Kundtjänstärenden" style="rounded=1;whiteSpace=wrap;html=1;fillColor=#d0e0e3;" vertex="1" parent="1">
          <mxGeometry x="860" y="700" width="180" height="120" as="geometry"/>
        </mxCell>

        <!-- Ny Entitet: Önskelista -->
        <mxCell id="32" value="Önskelista" style="rounded=1;whiteSpace=wrap;html=1;fillColor=#b6d7a8;" vertex="1" parent="1">
          <mxGeometry x="300" y="900" width="180" height="100" as="geometry"/>
        </mxCell>

        <!-- Relation: Användare till Kampanjer (många-till-många, antagande att användare kan prenumerera på flera kampanjer och kampanjer kan riktas till flera användare) -->
        <mxCell id="33" style="edgeStyle=orthogonalEdgeStyle;rounded=0;html=1;" edge="1" parent="1" source="2" target="30">
          <mxGeometry relative="1" as="geometry"/>
        </mxCell>

        <!-- Relation: Användare till Kundtjänstärenden (en-till-många, antagande att en användare kan ha flera ärenden) -->
        <mxCell id="34" style="edgeStyle=orthogonalEdgeStyle;rounded=0;html=1;" edge="1" parent="1" source="2" target="31">
          <mxGeometry relative="1" as="geometry"/>
        </mxCell>

        <!-- Relation: Användare till Önskelista (en-till-många, antagande att en användare kan ha flera önskelistor) -->
        <mxCell id="35" style="edgeStyle=orthogonalEdgeStyle;rounded=0;html=1;" edge="1" parent="1" source="2" target="32">
          <mxGeometry relative="1" as="geometry"/>
        </mxCell>

        <!-- Relation: Produkt till Önskelista (många-till-många, antagande att en önskelista kan innehålla flera produkter och en produkt kan finnas i flera önskelistor) -->
        <mxCell id="36" style="edgeStyle=orthogonalEdgeStyle;rounded=0;html=1;" edge="1" parent="1" source="3" target="32">
          <mxGeometry relative="1" as="geometry"/>
        </mxCell>

  

      </root>
    </mxGraphModel>
  </diagram>
</mxfile>
